<!DOCTYPE svg PUBLIC "-//W3C//DTD SVG 1.1//EN" "http://www.w3.org/Graphics/SVG/1.1/DTD/svg11.dtd">
<!-- Uploaded to: SVG Repo, www.svgrepo.com, Transformed by: SVG Repo Mixer Tools -->
<svg fill="#ffffff" height="800px" width="800px" version="1.1" id="Layer_1" xmlns="http://www.w3.org/2000/svg" xmlns:xlink="http://www.w3.org/1999/xlink" viewBox="0 0 512 512" xml:space="preserve" stroke="#ffffff">
<g id="SVGRepo_bgCarrier" stroke-width="0"/>
<g id="SVGRepo_tracerCarrier" stroke-linecap="round" stroke-linejoin="round"/>
<g id="SVGRepo_iconCarrier"> <g> <g> <g> <path d="M256.27,268.392c-22,0-39.898,17.899-39.898,39.899c0,22,17.898,39.898,39.898,39.898c22,0,39.899-17.898,39.899-39.898 S278.27,268.392,256.27,268.392z M256.27,332.053c-13.103,0-23.762-10.659-23.762-23.762c0-13.104,10.659-23.763,23.762-23.763 c13.104,0,23.763,10.66,23.763,23.763C280.033,321.394,269.372,332.053,256.27,332.053z"/> <path d="M396.013,474.217c14.014,0,25.11-4.117,32.979-12.235c11.184-11.539,11.348-27.044,11.32-29.021v-45.481 c0-4.253-1.35-10.157-8.282-19.216V260.304c0-4.456-3.611-8.068-8.068-8.068c-4.457,0-8.068,3.612-8.068,8.068v90.836 c-10.889-9.959-25.47-21.361-43.593-34.089c-0.109-0.076-0.216-0.152-0.325-0.228c-1.115-0.782-2.242-1.568-3.383-2.361 c-0.64-0.444-1.278-0.886-1.913-1.324c-0.24-0.166-0.472-0.328-0.714-0.495V121.393c0-13.765,11.198-24.964,24.964-24.964 c13.766,0,24.965,11.2,24.965,24.964v108.79c0,4.456,3.611,8.068,8.068,8.068c4.457,0,8.068-3.612,8.068-8.068v-108.79 c0-22.663-18.438-41.1-41.101-41.1c-16.904,0-31.451,10.259-37.756,24.878c-16.821-44.258-49.452-81.619-93.194-104.267 c-2.326-1.205-5.093-1.205-7.418,0c-43.742,22.648-76.371,60.009-93.194,104.265c-6.305-14.617-20.853-24.877-37.756-24.877 c-22.663,0-41.1,18.437-41.1,41.1v244.91c-7.405,9.458-8.823,15.553-8.823,19.916v45.479 c-0.027,1.974,0.133,17.481,11.318,29.021c7.869,8.119,18.965,12.235,32.979,12.235h71.683 c4.902,5.831,12.243,9.545,20.438,9.545h40.095v9.787c0,4.457,3.611,8.068,8.068,8.068c4.457,0,8.068-3.611,8.068-8.068v-9.787 h40.095c7.586,0,14.438-3.185,19.303-8.282L396.013,474.217L396.013,474.217z M96.646,121.393 c0-13.765,11.198-24.964,24.964-24.964c13.766,0,24.965,11.198,24.965,24.964v53.554v136.06 c-21.037,14.458-37.738,27.297-49.928,38.377V121.393z M115.984,456.819c-9.414,0-16.577-2.431-21.291-7.227 c-6.971-7.091-6.875-17.527-6.875-17.576c0.003-0.084,0.004-0.168,0.004-0.252v-45.545c0-1.301,1.437-13.76,51.202-50.102 c15.626-11.41,31.394-21.793,41.842-28.477v146.898c0,0.764,0.032,1.525,0.097,2.281H115.984z M248.201,466.364h-40.095v0 c-3.484,0-6.57-1.703-8.495-4.312c-0.215-0.574-0.483-1.134-0.834-1.657c-0.24-0.358-0.442-0.736-0.635-1.118 c-0.382-1.092-0.601-2.259-0.601-3.479V431.26h50.66V466.364z M314.998,455.799c0,0.467-0.042,0.929-0.102,1.387 c-0.016,0.119-0.034,0.239-0.055,0.357c-0.068,0.406-0.155,0.806-0.269,1.198c-0.014,0.051-0.024,0.103-0.04,0.153 c-0.132,0.431-0.3,0.852-0.487,1.264c-0.048,0.105-0.099,0.209-0.151,0.312c-0.189,0.382-0.397,0.756-0.634,1.116 c-1.89,2.873-5.139,4.777-8.828,4.777h-40.095V431.26h50.66V455.799z M314.998,294.317v120.807h-50.66v-17.552 c0-4.457-3.612-8.069-8.068-8.069c-4.457,0-8.068,3.611-8.068,8.068v17.552h-50.66V293.057v-67.028 c0-33.416,27.651-75.809,58.728-75.809s58.728,42.393,58.728,75.809V294.317z M256.27,134.084 c-41.47,0-74.864,50.298-74.864,91.945v62.191c-3.774,2.345-10.471,6.558-18.695,11.954V174.947 c0-66.051,35.737-126.104,93.559-157.739c57.822,31.635,93.559,91.689,93.559,157.739v126.843 c-8.09-5.316-14.754-9.519-18.695-11.974v-63.787C331.134,184.383,297.74,134.084,256.27,134.084z M331.037,458.081 c0.006-0.074,0.003-0.15,0.01-0.224c0.053-0.681,0.087-1.366,0.087-2.059v-32.607V308.9c6.256,4.003,14.428,9.339,23.332,15.424 c0.475,0.325,0.953,0.651,1.425,0.975c0.498,0.342,1,0.688,1.502,1.035c0.443,0.305,0.888,0.612,1.328,0.917 c0.576,0.399,1.155,0.802,1.735,1.207c0.343,0.239,0.687,0.478,1.027,0.715c0.748,0.523,1.498,1.05,2.25,1.58 c0.166,0.117,0.335,0.234,0.499,0.352c2.869,2.026,5.769,4.103,8.665,6.218c49.839,36.385,51.278,48.855,51.278,50.157v45.546 c0,0.084,0.001,0.168,0.004,0.252c0.003,0.101,0.125,10.357-6.774,17.473c-4.715,4.863-11.912,7.33-21.393,7.33H331.037z"/> <path d="M154.643,495.864H88.578c-4.457,0-8.068,3.611-8.068,8.068S84.121,512,88.578,512h66.065 c4.457,0,8.068-3.611,8.068-8.068C162.711,499.476,159.099,495.864,154.643,495.864z"/> <path d="M423.962,495.864h-66.065c-4.457,0-8.068,3.611-8.068,8.068s3.611,8.068,8.068,8.068h66.065 c4.457,0,8.068-3.611,8.068-8.068C432.03,499.476,428.419,495.864,423.962,495.864z"/> </g> </g> </g> </g>
</svg>